<svg width="20" height="20" viewBox="0 0 20 20" fill="none" xmlns="http://www.w3.org/2000/svg">
<g clip-path="url(#clip0_28_317)">
<path d="M19.174 9.71052C19.174 8.93165 19.1121 8.36328 18.9782 7.77386H10.2725V11.2893H15.3825C15.2796 12.1629 14.7232 13.4786 13.4869 14.3627L13.4695 14.4804L16.2221 16.6589L16.4128 16.6784C18.1643 15.0258 19.174 12.5945 19.174 9.71052Z" fill="#4285F4"/>
<path d="M10.2724 18.9729C12.7759 18.9729 14.8776 18.1308 16.4128 16.6783L13.4868 14.3627C12.7038 14.9205 11.6529 15.31 10.2724 15.31C7.82036 15.31 5.73924 13.6575 4.99738 11.3735L4.88864 11.383L2.02644 13.6459L1.98901 13.7522C3.51379 16.8467 6.64581 18.9729 10.2724 18.9729Z" fill="#34A853"/>
<path d="M4.9974 11.3735C4.80165 10.7841 4.68836 10.1525 4.68836 9.49998C4.68836 8.84736 4.80165 8.21586 4.9871 7.62645L4.98191 7.50092L2.08385 5.2016L1.98903 5.24768C1.3606 6.53179 1 7.9738 1 9.49998C1 11.0262 1.3606 12.4681 1.98903 13.7522L4.9974 11.3735Z" fill="#FBBC05"/>
<path d="M10.2724 3.68997C12.0135 3.68997 13.188 4.45832 13.8577 5.10042L16.4746 2.4901C14.8674 0.963925 12.7759 0.0271606 10.2724 0.0271606C6.64581 0.0271606 3.51379 2.15327 1.98901 5.24772L4.98708 7.62649C5.73924 5.34248 7.82036 3.68997 10.2724 3.68997Z" fill="#EB4335"/>
</g>
<defs>
<clipPath id="clip0_28_317">
<rect x="1" width="18.1739" height="19" rx="9.08696" fill="white"/>
</clipPath>
</defs>
</svg>
